HIERARCHY
ROOT hip
{
  OFFSET 0 0 0
  CHANNELS 6 Xposition Yposition Zposition Zrotation Yrotation Xrotation
  JOINT abdomen
  {
    OFFSET 0 20.6881 -0.73152
    CHANNELS 3 Zrotation Xrotation Yrotation
    JOINT chest
    {
      OFFSET 0 11.7043 -0.48768
      CHANNELS 3 Zrotation Xrotation Yrotation
      JOINT neck
      {
        OFFSET 0 22.1894 -2.19456
        CHANNELS 3 Zrotation Xrotation Yrotation
        JOINT head
        {
          OFFSET -0.24384 7.07133 1.2192
          CHANNELS 3 Zrotation Xrotation Yrotation
          JOINT leftEye
          {
            OFFSET 4.14528 8.04674 8.04672
            CHANNELS 3 Zrotation Xrotation Yrotation
            End Site
            {
              OFFSET 1 0 0
            }
          }
          JOINT rightEye
          {
            OFFSET -3.6576 8.04674 8.04672
            CHANNELS 3 Zrotation Xrotation Yrotation
            End Site
            {
              OFFSET 1 0 0
            }
          }
        }
      }
      JOINT rCollar
      {
        OFFSET -2.68224 19.2634 -4.8768
        CHANNELS 3 Zrotation Xrotation Yrotation
        JOINT rShldr
        {
          OFFSET -8.77824 -1.95073 1.46304
          CHANNELS 3 Zrotation Xrotation Yrotation
          JOINT rForeArm
          {
            OFFSET -28.1742 -1.7115 0.48768
            CHANNELS 3 Zrotation Xrotation Yrotation
            JOINT rHand
            {
              OFFSET -22.5879 0.773209 7.07136
              CHANNELS 3 Zrotation Xrotation Yrotation
              JOINT rThumb1
              {
                OFFSET -1.2192 -0.487915 3.41376
                CHANNELS 3 Zrotation Xrotation Yrotation
                JOINT rThumb2
                {
                  OFFSET -3.37035 -0.52449 3.41376
                  CHANNELS 3 Zrotation Xrotation Yrotation
                  End Site
                  {
                    OFFSET -1.78271 -1.18214 1.43049
                  }
                }
              }
              JOINT rIndex1
              {
                OFFSET -7.75947 0.938293 5.60832
                CHANNELS 3 Zrotation Xrotation Yrotation
                JOINT rIndex2
                {
                  OFFSET -2.54057 -0.884171 1.56538
                  CHANNELS 3 Zrotation Xrotation Yrotation
                  End Site
                  {
                    OFFSET -1.62519 -0.234802 1.16502
                  }
                }
              }
              JOINT rMid1
              {
                OFFSET -8.24714 1.18213 3.41376
                CHANNELS 3 Zrotation Xrotation Yrotation
                JOINT rMid2
                {
                  OFFSET -3.10165 -0.590103 1.0647
                  CHANNELS 3 Zrotation Xrotation Yrotation
                  End Site
                  {
                    OFFSET -2.48547 -0.328903 0.83742
                  }
                }
              }
              JOINT rRing1
              {
                OFFSET -8.82822 0.546677 1.51678
                CHANNELS 3 Zrotation Xrotation Yrotation
                JOINT rRing2
                {
                  OFFSET -2.60934 -0.819778 -0.0198488
                  CHANNELS 3 Zrotation Xrotation Yrotation
                  End Site
                  {
                    OFFSET -2.33842 -0.294052 0.168128
                  }
                }
              }
              JOINT rPinky1
              {
                OFFSET -8.27202 -0.0477905 -0.4584
                CHANNELS 3 Zrotation Xrotation Yrotation
                JOINT rPinky2
                {
                  OFFSET -1.82734 -0.647385 -0.700984
                  CHANNELS 3 Zrotation Xrotation Yrotation
                  End Site
                  {
                    OFFSET -1.69225 -0.51767 -0.607171
                  }
                }
              }
            }
          }
        }
      }
      JOINT lCollar
      {
        OFFSET 2.68224 19.2634 -4.8768
        CHANNELS 3 Zrotation Xrotation Yrotation
        JOINT lShldr
        {
          OFFSET 8.77824 -1.95073 1.46304
          CHANNELS 3 Zrotation Xrotation Yrotation
          JOINT lForeArm
          {
            OFFSET 28.1742 -1.7115 0.48768
            CHANNELS 3 Zrotation Xrotation Yrotation
            JOINT lHand
            {
              OFFSET 22.5879 0.773209 7.07136
              CHANNELS 3 Zrotation Xrotation Yrotation
              JOINT lThumb1
              {
                OFFSET 1.2192 -0.487915 3.41376
                CHANNELS 3 Zrotation Xrotation Yrotation
                JOINT lThumb2
                {
                  OFFSET 3.37035 -0.52449 3.41376
                  CHANNELS 3 Zrotation Xrotation Yrotation
                  End Site
                  {
                    OFFSET 1.78271 -1.18214 1.43049
                  }
                }
              }
              JOINT lIndex1
              {
                OFFSET 7.75947 0.938293 5.60832
                CHANNELS 3 Zrotation Xrotation Yrotation
                JOINT lIndex2
                {
                  OFFSET 2.54057 -0.884171 1.56538
                  CHANNELS 3 Zrotation Xrotation Yrotation
                  End Site
                  {
                    OFFSET 1.62519 -0.234802 1.16502
                  }
                }
              }
              JOINT lMid1
              {
                OFFSET 8.24714 1.18213 3.41376
                CHANNELS 3 Zrotation Xrotation Yrotation
                JOINT lMid2
                {
                  OFFSET 3.10165 -0.590103 1.0647
                  CHANNELS 3 Zrotation Xrotation Yrotation
                  End Site
                  {
                    OFFSET 2.48547 -0.328903 0.83742
                  }
                }
              }
              JOINT lRing1
              {
                OFFSET 8.82822 0.546677 1.51678
                CHANNELS 3 Zrotation Xrotation Yrotation
                JOINT lRing2
                {
                  OFFSET 2.60934 -0.819778 -0.0198488
                  CHANNELS 3 Zrotation Xrotation Yrotation
                  End Site
                  {
                    OFFSET 2.33842 -0.294052 0.168128
                  }
                }
              }
              JOINT lPinky1
              {
                OFFSET 8.27202 -0.0477905 -0.4584
                CHANNELS 3 Zrotation Xrotation Yrotation
                JOINT lPinky2
                {
                  OFFSET 1.82734 -0.647385 -0.700984
                  CHANNELS 3 Zrotation Xrotation Yrotation
                  End Site
                  {
                    OFFSET 1.69225 -0.51767 -0.607171
                  }
                }
              }
            }
          }
        }
      }
    }
  }
  JOINT rButtock
  {
    OFFSET -8.77824 4.35084 1.2192
    CHANNELS 3 Zrotation Xrotation Yrotation
    JOINT rThigh
    {
      OFFSET 0 -1.70687 -2.19456
      CHANNELS 3 Zrotation Xrotation Yrotation
      JOINT rShin
      {
        OFFSET 0 -36.8199 0.73152
        CHANNELS 3 Zrotation Xrotation Yrotation
        JOINT rFoot
        {
          OFFSET 0.73152 -45.1104 -5.12064
          CHANNELS 3 Zrotation Xrotation Yrotation
          End Site
          {
            OFFSET -1.1221 -3.69964 12.103
          }
        }
      }
    }
  }
  JOINT lButtock
  {
    OFFSET 8.77824 4.35084 1.2192
    CHANNELS 3 Zrotation Xrotation Yrotation
    JOINT lThigh
    {
      OFFSET 0 -1.70687 -2.19456
      CHANNELS 3 Zrotation Xrotation Yrotation
      JOINT lShin
      {
        OFFSET 0 -36.8199 0.73152
        CHANNELS 3 Zrotation Xrotation Yrotation
        JOINT lFoot
        {
          OFFSET -0.73152 -45.1104 -5.12064
          CHANNELS 3 Zrotation Xrotation Yrotation
          End Site
          {
            OFFSET 1.1221 -3.69964 12.103
          }
        }
      }
    }
  }
}
MOTION
Frames:	4
Frame Time:	0.03333
0.18097665160894394 60.48173904418945 -0.06922027096152306 -6.991624959914233 5.864042690215169 2.3192895569773833 -2.5736991625215486 15.287044239924692 4.161484424013852 2.6989091231691646 -10.307325778344937 1.3355565140057817 -4.922793103715929 15.327455054149072 -2.9915669342917552 8.675304156362811 -24.959558576430304 -4.582878494386489 0.05373029675571355 -0.03159213287139484 -0.026367344981239205 -0.22139631307773205 -0.06589969282469287 0.019953477185479886 0.0970495175864765 -0.061474077088068395 -0.009378870256739042 43.70336497039303 27.76902028773165 14.956060102935043 -24.27892339544936 -30.192537037339545 63.803570093892134 -4.932728040750535 -9.99761511929894 -5.732664001529973 0.13212712800784057 -0.006423472749279648 0.08154069262188984 0.044525576312489996 -0.07481023488592986 0.00357005450180104 -0.07649032801962076 0.06645507258157952 0.13250460268118955 7.739695452344357 5.658440335819445 0.4799978405032872 0.06096776263541476 -0.035925781178062145 0.014463966104133369 2.985352742807513 1.068818950618272 0.0857048001587101 0.0562063737319754 0.06734662571167775 0.07915559589980668 10.14489790346651 0.7207507496062767 -0.00660479292740233 -0.041199274186693786 0.11580222883956963 0.043058473023112415 2.365245417590756 -0.6951641139234684 -0.11687259418770467 0.05771146994861118 0.045475559576503566 -0.05011651303496856 -51.87813493513074 30.160298544457085 -21.84737263583024 23.39396310544749 -28.46800647946512 -60.56020695518739 5.606427591516152 -14.244238278203824 5.175096876561615 -0.07637304086496695 0.06857707361848497 0.012737022141604402 -0.01713513035856371 0.08788551147400857 0.07337896340926839 -0.029625198472989837 0.04855445410787193 0.04277539369852712 -7.890623849981421 5.538405737571995 -0.38270515751018763 -0.04025395999730816 -0.023004770815690526 -0.024382307913491025 -2.931200655190125 0.9132578704549407 -0.08850572466715745 0.060404325389741595 -0.04504691184523238 0.021701031777437894 -10.357080291353896 0.7159472056290537 0.1308108224887322 -0.05448948829021633 0.05369451830385032 -0.07936637126872505 -2.2042627680520215 -0.7790677051526389 0.4115916816966112 -0.05673112435930278 0.01036267763137872 -0.01493231430995526 -29.46296013586088 -35.24794594775409 -28.39508908743336 -6.496498570564485 60.2509838008934 7.446303822772813 -4.98683039605303 -10.081936365923687 -9.676221421677637 -0.0031125919099688577 0.07872944278840813 -0.08917783128974258 33.709015535291 -33.06996596107169 30.279724402094757 6.67798694209548 61.14680409167559 -8.105618568259558 5.246033086847252 -10.02279973431607 12.771115884620167
-0.1439899206161499 64.49246406555176 -0.11500930413603783 -4.041300842265131 4.23308316264898 5.0728224777034905 -2.7461996454350404 14.22701766375893 2.9959811574862876 2.8819669441053803 -9.278426935547863 0.8852931550022044 -5.1539348160788 15.63292672704143 -4.747213699590643 9.282744468876958 -25.574490752690306 -6.7718290455364 0.013153423557137172 -0.08613925088273315 0.0043523913062451765 0.08730497207498393 0.01806307559033341 0.0016689540556499712 -0.05301987704075289 0.08721759367837537 0.03306835419651012 53.4116729132441 30.715193357912675 15.32926846937371 -23.829018834820623 -28.554900146086023 65.81510861578508 -3.8523120692518167 -9.510104390873757 -4.036132523497547 -0.13487403799294928 0.08723827100887052 -0.22222257920431848 -0.026196230066231875 0.056988323670236075 0.05994595566341027 0.02361196396073408 -0.0463152993184449 -0.09458648733874642 7.855374951222277 5.432551038928314 0.4620392454629138 -0.0634125434714562 -0.03976712225595963 0.04064023921138411 2.864921566701379 0.8610426750757799 0.030617430192279638 -0.002189182350694868 -0.08618770253715793 -0.10756480725712268 10.507004651182967 0.7236633450396112 0.05561764344203203 0.13887217993706616 -0.12944905352296088 -0.10036514754169455 2.142749017169829 -0.9475408310550562 -0.32847921847239864 -0.06650042930653664 -0.04315542969281486 -0.06643255430165965 -63.23154858109273 33.53326110756824 -25.569777922163 22.728875142564792 -26.45746004254912 -62.25793926585327 5.10679669240878 -11.38113909135037 3.4210379168013443 -0.01606983429145328 -0.16387704892123328 -0.04713748333978519 0.14526942582715002 -0.037069064131672366 -0.011896375265163928 0.05164295359276063 -0.01901116454406936 -0.0038647131314636213 -7.639668185723166 5.474230133904201 -0.5868191176362305 0.10822936331902376 -0.11174899181484307 -0.13940045238068435 -3.0208646038497022 0.9874343651715138 -0.18440387513081077 -0.09214581528837756 0.03149261488075364 0.06736452827782259 -10.272082002227672 0.7302046919129264 -0.24893680974998708 0.22371201401063084 -0.03765739421521905 0.06696776365615362 -2.1898820181979715 -0.7651491670063281 0.03374444287274222 -0.04336876638267198 0.07212114138492823 0.018770720540943753 -32.57630379352526 -36.21652482866984 -27.365743721019292 -4.425409763732315 63.65635219652168 5.9552620010148045 -4.563435080253579 -9.648017863047361 -10.588489661754865 0.12072065873306638 0.06386668435019593 0.17756336063576367 36.81312819229211 -33.407927136298504 29.339231259046098 3.428446751060104 63.81055054722388 -4.593094322950713 5.243470058361204 -10.021661654045616 15.6127076595509
-0.15723779797554016 59.67017412185669 -0.6063352338969707 -88.17957950575135 68.69798120028572 -89.42024921753831 2.6846963532800143 20.746161726516593 1.12285492501977 3.8232295506527256 -11.767988199335198 -0.017502493150289903 -6.389142084077048 19.759515287698864 -9.03786169656449 13.048323380953367 -28.93553634324708 -15.696338203295827 0.6058966897617224 -0.25805575262218877 0.3135129933404313 -0.31191168750603354 0.34029005629037873 -0.09238045629875132 0.5023958450607573 0.10262698069360014 -0.05265286776467709 47.1311705374448 26.668492397335005 12.316323469866639 -29.50127066691548 -42.19485963558777 87.68620079105548 0.137720572690405 3.1261705394822545 1.9160940987614217 -0.5829647565102277 -0.3429214933898319 0.00592100027803414 0.32898129073724747 0.4226068825175641 -0.006820851020756874 0.5465150251176315 0.36181902599767046 0.8480146228425095 9.103528842792285 5.799382143116304 0.24325121087448037 0.4826584126284187 0.30029060088093285 -0.25256900296497936 3.5098980375729756 0.9041410620168546 0.07222312731501564 0.7565454231687864 0.12480175012300189 -0.8151970579844792 10.620236381017085 0.29493407838520325 0.09574393759879914 0.710387591727222 -0.20983579102066235 -0.04347927670900867 2.4280417499330302 -1.0701633239460009 -0.056002802078197286 -0.41219892820250764 0.34444537262668523 -0.33045650487626443 -65.40998277535495 46.54595651426352 -8.98074167830932 29.869062693342325 -41.53579077691115 -86.34571469473795 9.980768457711104 -41.50591211438692 13.507843140386193 -0.700865934498254 1.1727188277771539 0.11702280498859206 -0.45503659401635826 0.6877764639233064 -0.3932138837959283 -0.08187699939723364 -0.6274266199643661 -0.30863052866178287 -8.218115198984254 5.339596860079494 -0.6414392866551762 -0.9681454840685747 0.11364511636146209 -0.1570898952790769 -3.6554873617132055 1.1104710450025963 1.02351195797605 0.030307843864020877 -0.2722266876026727 -0.21902583722934096 -11.199386903762685 0.9185483855756444 -0.8518274692249633 0.5554522742857403 -0.20841137641359736 0.7705620919235632 -2.0454085762133922 -0.5172397671178991 0.5271693680672167 -0.8203932844781251 0.8038744186095963 0.7983915909750744 -46.31700515819011 -39.97027385310379 -37.72267374821145 -15.042234892145801 72.37350406815551 16.183069436381984 0.2619959179996399 -15.367302377766926 -2.689562649620237 -0.49442922980673076 0.4154394260768556 -0.6243735254053705 82.58902185877172 -54.351250810943974 68.24192263921479 157.67842770697774 91.76275138585339 -158.4064165894744 2.600971040660352 -20.975435809028287 4.338666788159976
1.2447774410247803 56.81077241897583 0.9268478490412235 -125.19324205207504 80.09322292472487 -127.00844678627597 1.5181534038947273 18.58494131651011 -6.154365430415261 8.654599291667564 -8.959399898473968 -1.0548137544468665 -8.604573278639098 23.029618617004207 -15.885087065914545 22.522045061665757 -28.432177014626525 -28.945484513773202 0.4965886901623655 0.7964550189019642 0.48506002453447156 0.411456998903915 0.2861945311770546 0.965817563500364 0.4647713211309189 -0.38078093847452166 0.046192669408395406 58.50596609060352 28.294980712315773 -6.488342470921844 -28.88484609432183 -43.0252330537429 89.73983376880321 1.436280566644019 -3.546508918741302 -1.1666264057592082 -1.3538768956287541 0.6781990446030675 -0.4074468507678977 0.25535836150856267 0.8984174702140897 0.7240322286156448 0.5864137885976726 -0.9776203438295575 0.3145335196519664 8.30833772905189 4.666873599478367 0.2815959995966377 0.17031001990232747 -1.3905716600578244 -2.017901483435047 2.1992684056648613 -0.3046268638693918 1.0102826286056759 0.4582710621143295 -0.2026150004074895 -0.8054441881799357 10.256652604892613 0.2910276370667791 0.5580696241200304 0.15980465535031896 0.8402665202810705 -0.44012501039775104 1.237442020517312 -1.2582158274344941 0.4427538328154126 -0.7587074448453598 2.0139839430592215 1.2045693872590983 -63.82279024621655 51.048932894418265 -4.496248216935456 28.781454105760762 -40.71020532136419 -83.49650128246712 5.713372985992919 -26.917408396352364 6.264614502016199 0.22355150456513553 0.33781293877748547 1.5708320916420968 0.004616140661870805 0.0088517917622043 -0.6839088693057866 0.3239773233965669 -1.0807385912152963 0.5483223572050404 -5.992327303206348 4.801634939350011 0.5922491180263907 -0.3726177685188722 0.22798461750159116 -0.3170519651454235 -2.6402318217832312 0.2600194320085675 2.20235607805653 -1.6158114486475696 -0.26170606184673745 0.15200337869897435 -8.866943896547737 1.2089417755449645 -0.8712051427871127 0.8752212406582273 -0.9559826247040746 1.4521769781635776 -3.584797038237689 -0.05533136246627329 0.2041118790527801 1.202341891816028 0.5135346029365787 -1.0523625703084782 -43.341119057572236 -46.63083869017386 -31.192678222409928 0.0014065387213466102 76.19203743686703 1.3357393282877852 1.9898684660906105 -17.108536163256616 0.026247776650124312 -0.3084571592507409 0.5382839001158257 0.15326528282856067 73.07813370369071 -53.38198891111122 60.59178291972036 170.9601950009311 87.25398642037707 -174.70394462842015 3.0517020541786635 -25.718192810185496 8.958862021076829
